HIERARCHY
ROOT Hips
{
  OFFSET 58.7476 104.83 -19.0822
  CHANNELS 6 Xposition Yposition Zposition Zrotation Xrotation Yrotation
  JOINT ToSpine
  {
    OFFSET -2.69724 7.43032 -0.144315
    CHANNELS 3 Zrotation Xrotation Yrotation
    JOINT Spine
    {
      OFFSET -0.0310711 10.7595 1.96963
      CHANNELS 3 Zrotation Xrotation Yrotation
      JOINT Spine1
      {
        OFFSET 19.9056 3.91189 0.764692
        CHANNELS 3 Zrotation Xrotation Yrotation
        JOINT Neck
        {
          OFFSET 25.9749 7.03908 -0.130764
          CHANNELS 3 Zrotation Xrotation Yrotation
          JOINT Head
          {
            OFFSET 9.52751 0.295786 -0.907742
            CHANNELS 3 Zrotation Xrotation Yrotation
            End Site
            {
              OFFSET 16.4037 0.713936 2.7358
            }
          }
        }
        JOINT LeftShoulder
        {
          OFFSET 17.7449 4.33886 11.7777
          CHANNELS 3 Zrotation Xrotation Yrotation
          JOINT LeftArm
          {
            OFFSET 0.911315 1.27913 9.80584
            CHANNELS 3 Zrotation Xrotation Yrotation
            JOINT LeftForeArm
            {
              OFFSET 28.6126 1.18197 -3.53199
              CHANNELS 3 Zrotation Xrotation Yrotation
              JOINT LeftHand
              {
                OFFSET 27.5088 0.0218783 0.327423
                CHANNELS 3 Zrotation Xrotation Yrotation
                End Site
                {
                  OFFSET 18.6038 -0.000155887 0.382096
                }
              }
            }
          }
        }
        JOINT RightShoulder
        {
          OFFSET 17.1009 2.89543 -12.2328
          CHANNELS 3 Zrotation Xrotation Yrotation
          JOINT RightArm
          {
            OFFSET 1.4228 0.178766 -10.211
            CHANNELS 3 Zrotation Xrotation Yrotation
            JOINT RightForeArm
            {
              OFFSET 28.733 1.87905 2.64907
              CHANNELS 3 Zrotation Xrotation Yrotation
              JOINT RightHand
              {
                OFFSET 27.4588 0.290562 -0.101845
                CHANNELS 3 Zrotation Xrotation Yrotation
                End Site
                {
                  OFFSET 17.8396 -0.255518 -0.000602873
                }
              }
            }
          }
        }
      }
    }
  }
  JOINT LeftUpLeg
  {
    OFFSET -5.61296 -2.22332 -10.2353
    CHANNELS 3 Zrotation Xrotation Yrotation
    JOINT LeftLeg
    {
      OFFSET 2.56703 -44.7417 -7.93097
      CHANNELS 3 Zrotation Xrotation Yrotation
      JOINT LeftFoot
      {
        OFFSET 3.16933 -46.5642 -3.96578
        CHANNELS 3 Zrotation Xrotation Yrotation
        JOINT LeftToeBase
        {
          OFFSET 0.346054 -6.02161 12.8035
          CHANNELS 3 Zrotation Xrotation Yrotation
          End Site
          {
            OFFSET 0.134235 -1.35082 5.13018
          }
        }
      }
    }
  }
  JOINT RightUpLeg
  {
    OFFSET -5.7928 -1.72406 10.6446
    CHANNELS 3 Zrotation Xrotation Yrotation
    JOINT RightLeg
    {
      OFFSET -2.57161 -44.7178 -7.85259
      CHANNELS 3 Zrotation Xrotation Yrotation
      JOINT RightFoot
      {
        OFFSET -3.10148 -46.5936 -4.03391
        CHANNELS 3 Zrotation Xrotation Yrotation
        JOINT RightToeBase
        {
          OFFSET -0.0828122 -6.13587 12.8035
          CHANNELS 3 Zrotation Xrotation Yrotation
          End Site
          {
            OFFSET -0.131328 -1.35082 5.13018
          }
        }
      }
    }
  }
}
MOTION
Frames:	12
Frame Time:	0.0333333
-368.874 103.502 26.7088 72.9355 3.08967 2.65077 -70.1915 0 88.8779 76.3096 70.7711 10.7127 4.00204 19.5747 5.26787 -142.793 19.5448 168.246 -143.151 56.1359 165.632 2.5936 -1.64872 -30.916 -103.524 52.988 -85.301 -5.28887 50.872 -1.8952 14.2294 -0.212063 -0.0119469 0.212384 -0.673174 46.1946 -79.8947 -37.3146 90.6755 -2.85649 -18.8072 11.8925 19.9006 -1.52685 -9.33686 -57.8871 -1.30659 94.1065 3.7944 16.2249 -12.8755 8.49263 7.71107 -1.14653 -8.91583 -24.8575 9.00569 -58.4078 5.93202 81.8808 -0.77303 19.0745 -5.00457 -5.77337 -1.42582 0.90043 -0.444799 -2.1735 0.350243 
-368.736 103.472 26.8064 72.6954 2.87406 2.76033 -70.1915 0 88.8779 75.7325 70.8363 11.6991 4.20825 19.7622 5.01861 -142.67 19.6672 168.393 -143.133 56.3084 165.984 2.573 -1.9102 -31.3076 -103.531 52.676 -85.1119 -5.76223 49.5598 -1.6489 15.6834 -0.406347 -1.23339 0.216663 -0.686512 46.0746 -78.5628 -37.4015 91.6611 -2.84195 -16.8483 12.3508 17.6318 -1.74314 -11.9838 -57.6341 -0.934426 94.3833 3.55553 16.1194 -11.2027 7.42432 7.71609 -0.947641 -9.49239 -25.0571 5.75694 -58.2265 6.17517 81.9665 -0.732562 19.0395 -5.07163 -5.91004 -1.47378 0.916348 -0.448001 -2.15946 0.398069 
-368.593 103.442 26.92 72.603 2.89788 2.79723 -70.1915 0 88.8779 75.8557 70.8528 11.5904 4.3373 19.7856 4.93825 -143.024 19.7427 168.592 -143.633 56.4979 166.496 2.57125 -1.99246 -31.5007 -103.296 52.4791 -85.1004 -5.71636 49.3656 -1.9 15.9899 -0.544574 -2.14035 0.226897 -0.718853 46.0612 -78.2523 -37.324 91.9631 -2.78913 -16.3238 12.5314 16.8029 -1.71878 -12.414 -57.6308 -0.814565 94.4667 3.50719 16.0109 -10.7863 6.9618 7.81025 -0.860433 -9.77236 -25.3804 4.77591 -58.1897 6.23856 81.9308 -0.661942 19.0884 -5.20363 -6.14375 -1.64663 0.944929 -0.439148 -2.07617 0.447505 
-368.473 103.401 26.9941 72.3448 3.10337 3.03079 -70.1915 0 88.8779 76.2032 70.7263 11.5423 4.32338 19.693 4.73714 -143.204 19.7762 168.726 -143.894 56.5938 166.824 2.55067 -2.19892 -31.7756 -103.178 52.0782 -84.8717 -5.32949 49.4048 -2.49446 15.4643 -0.663544 -3.12698 0.241952 -0.766427 46.0811 -77.8123 -37.2988 92.242 -2.70375 -15.7477 12.7617 16.6552 -1.73592 -12.6461 -57.4625 -0.755935 94.2888 3.77216 16.0554 -12.1687 7.53921 7.7489 -0.968815 -9.63342 -25.9012 6.81306 -57.994 6.38246 81.9081 -0.53273 19.0962 -5.57509 -6.27797 -1.73447 0.960836 -0.463756 -2.16635 0.520105 
-368.338 103.411 27.1562 72.2402 3.1799 2.98003 -70.1915 0 88.8779 76.6022 70.834 10.9173 4.26797 19.7291 4.82658 -143.502 19.8691 168.819 -143.994 56.6712 166.737 2.51161 -2.51036 -32.1012 -103.047 51.666 -84.7671 -5.10474 49.5896 -2.84899 15.0303 -0.772474 -4.07156 0.259983 -0.823482 46.0542 -78.0171 -37.1818 92.4885 -3.07706 -15.7227 12.3947 16.8392 -1.70598 -12.2979 -57.3827 -0.731419 94.3283 3.76912 16.063 -11.7056 6.9399 7.57472 -0.859107 -9.60769 -25.3944 5.82568 -58.0018 6.41673 81.9454 -0.517766 19.0188 -5.72275 -6.4376 -1.79882 0.978874 -0.481639 -2.23924 0.562541 
-368.188 103.397 27.3069 72.1348 3.34484 2.96627 -70.1915 0 88.8779 77.4407 70.8181 9.94016 4.17356 19.6422 4.8317 -144.063 19.93 169.09 -144.439 56.7349 166.691 2.50815 -2.61446 -32.3583 -102.798 51.359 -84.8062 -4.85193 50.4402 -3.10495 14.8609 -0.822158 -4.50844 0.256974 -0.814094 46.007 -77.6517 -37.2266 92.7423 -2.96116 -15.4811 12.5831 16.5428 -1.67291 -12.2875 -57.3423 -0.707905 94.3467 3.74998 16.0488 -11.7296 6.87818 7.53493 -0.848178 -9.65504 -25.4303 5.61628 -57.9329 6.39368 81.896 -0.452627 19.1344 -5.88617 -6.53988 -1.98028 0.992365 -0.488984 -2.2723 0.575449 
-368.028 103.391 27.4899 72.0059 3.50636 2.97528 -70.1915 0 88.8779 78.2399 70.8117 9.04888 4.108 19.585 4.78928 -144.467 20.0161 169.158 -144.841 56.8981 166.953 2.49409 -2.77046 -32.6229 -102.907 50.962 -84.8475 -4.9946 50.2269 -2.95816 13.9814 -0.860976 -5.20305 0.237908 -0.753699 46.0263 -77.8426 -37.226 92.7545 -3.01923 -15.8295 12.4368 16.5833 -1.67772 -12.2911 -57.2509 -0.621352 94.4051 3.70633 16.0651 -11.6239 6.6335 7.52113 -0.80319 -9.74422 -25.4533 5.12094 -57.8383 6.44067 81.8979 -0.424081 19.249 -6.02371 -6.53357 -2.01971 0.992277 -0.532019 -2.57316 0.489461 
-367.846 103.37 27.7141 71.8482 3.77176 2.97202 -70.1915 0 88.8779 79.0471 70.8041 7.94064 3.78126 19.4507 5.06019 -144.408 20.0475 169.433 -145.338 57.097 167.873 2.46287 -3.02701 -32.9566 -102.508 50.5307 -85.0257 -5.06333 50.2971 -2.9747 14.2236 -0.812249 -4.70652 0.204757 -0.648489 45.9028 -78.0258 -37.4183 92.5885 -3.15201 -16.1815 12.2146 16.9115 -1.69865 -12.1939 -57.1692 -0.571077 94.4206 3.67736 16.0634 -11.9205 6.64713 7.45477 -0.806651 -9.74526 -25.5018 5.22801 -57.6734 6.46118 81.8808 -0.40571 19.4755 -6.22507 -6.49578 -2.11643 0.989768 -0.585092 -2.9502 0.367735 
-367.688 103.351 27.9389 71.6552 4.03384 3.02073 -70.1915 0 88.8779 80.2997 70.7467 6.58363 3.33412 19.2942 5.18075 -144.133 19.9782 169.744 -145.358 57.0636 168.377 2.42599 -3.27929 -33.2091 -102.052 50.1447 -85.3706 -5.17897 49.9218 -2.99025 13.6769 -0.684348 -3.92136 0.183896 -0.582964 46.0775 -77.5801 -37.3533 92.5281 -3.01971 -15.9225 12.4258 16.7915 -1.69975 -12.29 -56.9668 -0.488428 94.4236 3.67865 16.1667 -12.0578 6.49331 7.39258 -0.779317 -9.80605 -25.5861 5.05348 -57.4325 6.50806 81.8598 -0.351021 19.7463 -6.38629 -6.35744 -2.09033 0.975028 -0.656083 -3.51405 0.0921392 
-367.45 103.331 28.1929 71.6248 3.99971 2.94812 -70.1915 0 88.8779 81.102 70.8556 5.78413 3.36046 19.3689 5.1726 -144.082 20.1538 170.202 -145.913 57.3865 169.238 2.38022 -3.59449 -33.558 -100.771 49.6555 -86.5915 -5.3601 50.1483 -3.00018 12.8486 -0.468762 -2.4162 0.185738 -0.588489 46.0056 -78.3073 -37.3394 92.3315 -3.44265 -16.5002 11.8135 17.2609 -1.72097 -12.0948 -57.1201 -0.290563 94.594 3.56063 16.0821 -12.204 6.5231 7.33617 -0.785646 -9.84959 -25.7982 5.27992 -57.3274 6.59092 81.8704 -0.357851 20.1358 -6.18082 -6.1593 -1.98615 0.952622 -0.761367 -4.31407 -0.303438 
-367.172 103.306 28.4818 71.5063 4.09332 2.96121 -70.1915 0 88.8779 81.8042 70.8529 5.03318 3.30391 19.2839 5.33518 -144.253 20.1043 171.036 -146.139 57.2653 169.354 2.37529 -3.68714 -33.8138 -99.3377 49.3241 -88.3738 -6.69601 50.1318 -1.70095 12.5678 -0.295918 -0.97921 0.168304 -0.532847 45.9322 -79.4475 -37.3171 91.7853 -3.79144 -17.491 11.14 17.7118 -1.74666 -11.9521 -57.1489 -0.133085 94.6465 3.59905 16.0894 -12.599 6.56622 7.27751 -0.794412 -9.88687 -26.0919 5.72146 -57.2127 6.73274 81.8937 -0.335192 20.4206 -6.1265 -5.97026 -1.86356 0.930463 -0.877627 -5.14787 -0.71398 
-366.843 103.269 28.7999 71.3718 3.99958 2.94424 -70.1915 0 88.8779 82.1873 70.9021 4.779 3.41315 19.3316 5.28534 -144.35 20.1053 171.073 -146 57.2401 169.347 2.35348 -3.80329 -33.8714 -98.5129 49.1762 -90.0201 -8.26745 50.5032 0.168617 11.7324 -0.102505 0.662289 0.133784 -0.424363 46.0521 -80.8474 -37.1749 91.0483 -4.19125 -18.4681 10.3841 18.1511 -1.75005 -11.6809 -57.0874 0.225968 94.8845 3.45264 16.313 -12.8588 6.60586 7.15397 -0.80345 -10.0086 -26.5284 5.96913 -57.044 6.93845 81.9516 -0.335103 20.802 -5.90038 -5.73972 -1.69171 0.902419 -1.01622 -6.10962 -1.23042 
